<svg version="1.1" xmlns="http://www.w3.org/2000/svg" xmlns:xlink="http://www.w3.org/1999/xlink" width="1292.87353515625" height="472"><defs/><g><g transform="translate(-22,-78) scale(1,1)"><rect fill="#C0C0C0" stroke="none" x="567" y="223" width="112.796875" height="44" opacity="0.2"/></g><g transform="translate(-22,-78) scale(1,1)"><rect fill="#ffffff" stroke="none" x="560" y="216" width="112.796875" height="44"/></g><g transform="translate(-22,-78) scale(1,1)"><path fill="none" stroke="#000000" d="M 560 216 L 672.796875 216 L 672.796875 260 L 560 260 L 560 216 Z Z" stroke-miterlimit="10"/></g><g transform="translate(-22,-78) scale(1,1)"><path fill="none" stroke="#000000" d="M 560 241 L 672.796875 241" stroke-miterlimit="10"/></g><g transform="translate(-22,-78) scale(1,1)"><path fill="none" stroke="#000000" d="M 560 251 L 672.796875 251" stroke-miterlimit="10"/></g><g transform="translate(-22,-78) scale(1,1)"><g><path fill="none" stroke="none"/><text fill="#000000" stroke="none" font-family="Arial" font-size="13px" font-style="normal" font-weight="bold" text-decoration="none" x="566.4296875" y="235.5">IWebRTCService</text></g></g><g transform="translate(-22,-78) scale(1,1)"><rect fill="#C0C0C0" stroke="none" x="567" y="359" width="109.18505859375" height="44" opacity="0.2"/></g><g transform="translate(-22,-78) scale(1,1)"><rect fill="#ffffff" stroke="none" x="560" y="352" width="109.18505859375" height="44"/></g><g transform="translate(-22,-78) scale(1,1)"><path fill="none" stroke="#000000" d="M 560 352 L 669.18505859375 352 L 669.18505859375 396 L 560 396 L 560 352 Z Z" stroke-miterlimit="10"/></g><g transform="translate(-22,-78) scale(1,1)"><path fill="none" stroke="#000000" d="M 560 377 L 669.18505859375 377" stroke-miterlimit="10"/></g><g transform="translate(-22,-78) scale(1,1)"><path fill="none" stroke="#000000" d="M 560 387 L 669.18505859375 387" stroke-miterlimit="10"/></g><g transform="translate(-22,-78) scale(1,1)"><g><path fill="none" stroke="none"/><text fill="#000000" stroke="none" font-family="Arial" font-size="13px" font-style="normal" font-weight="bold" text-decoration="none" x="566.4296875" y="371.5">WebRTCService</text></g></g><g transform="translate(-22,-78) scale(1,1)"><path fill="none" stroke="#000000" d="M 614 351 L 616 261" stroke-miterlimit="10"/></g><g transform="translate(-22,-78) scale(1,1)"><path fill="#FFFFFF" stroke="none" d="M 623.9653945525787 281.50737646852343 L 616 261 L 607.1314795377165 281.1332894681932"/></g><g transform="translate(-22,-78) scale(1,1)"><path fill="none" stroke="#000000" d="M 623.9653945525787 281.50737646852343 L 616 261 L 607.1314795377165 281.1332894681932 L 623.9653945525787 281.50737646852343" stroke-miterlimit="10"/></g><g transform="translate(-22,-78) scale(1,1)"><path fill="#C0C0C0" stroke="none" d="M 255.720458984375 234.5 C 255.720458984375 228.1487248 260.869183784375 223 267.220458984375 223 C 273.571734184375 223 278.720458984375 228.1487248 278.720458984375 234.5 C 278.720458984375 240.8512752 273.571734184375 246 267.220458984375 246 C 260.869183784375 246 255.720458984375 240.8512752 255.720458984375 234.5 Z" opacity="0.2"/></g><g transform="translate(-22,-78) scale(1,1)"><path fill="#ffffff" stroke="none" d="M 248.720458984375 227.5 C 248.720458984375 221.1487248 253.869183784375 216 260.220458984375 216 C 266.571734184375 216 271.720458984375 221.1487248 271.720458984375 227.5 C 271.720458984375 233.8512752 266.571734184375 239 260.220458984375 239 C 253.869183784375 239 248.720458984375 233.8512752 248.720458984375 227.5 Z"/></g><g transform="translate(-22,-78) scale(1,1)"><path fill="none" stroke="#000000" d="M 248.720458984375 227.5 C 248.720458984375 221.1487248 253.869183784375 216 260.220458984375 216 C 266.571734184375 216 271.720458984375 221.1487248 271.720458984375 227.5 C 271.720458984375 233.8512752 266.571734184375 239 260.220458984375 239 C 253.869183784375 239 248.720458984375 233.8512752 248.720458984375 227.5 Z" stroke-miterlimit="10"/></g><g transform="translate(-22,-78) scale(1,1)"><g><path fill="none" stroke="none"/><text fill="#000000" stroke="none" font-family="Arial" font-size="13px" font-style="normal" font-weight="bold" text-decoration="none" x="223.727783203125" y="258.5">IPluginClient</text></g></g><g transform="translate(-22,-78) scale(1,1)"><rect fill="#C0C0C0" stroke="none" x="311" y="359" width="84.8291015625" height="44" opacity="0.2"/></g><g transform="translate(-22,-78) scale(1,1)"><rect fill="#ffffff" stroke="none" x="304" y="352" width="84.8291015625" height="44"/></g><g transform="translate(-22,-78) scale(1,1)"><path fill="none" stroke="#000000" d="M 304 352 L 388.8291015625 352 L 388.8291015625 396 L 304 396 L 304 352 Z Z" stroke-miterlimit="10"/></g><g transform="translate(-22,-78) scale(1,1)"><path fill="none" stroke="#000000" d="M 304 377 L 388.8291015625 377" stroke-miterlimit="10"/></g><g transform="translate(-22,-78) scale(1,1)"><path fill="none" stroke="#000000" d="M 304 387 L 388.8291015625 387" stroke-miterlimit="10"/></g><g transform="translate(-22,-78) scale(1,1)"><g><path fill="none" stroke="none"/><text fill="#000000" stroke="none" font-family="Arial" font-size="13px" font-style="normal" font-weight="bold" text-decoration="none" x="311.727783203125" y="371.5">PluginClient</text></g></g><g transform="translate(-22,-78) scale(1,1)"><path fill="#C0C0C0" stroke="none" d="M 430.66845703125 234.5 C 430.66845703125 228.1487248 435.81718183125 223 442.16845703125 223 C 448.51973223125 223 453.66845703125 228.1487248 453.66845703125 234.5 C 453.66845703125 240.8512752 448.51973223125 246 442.16845703125 246 C 435.81718183125 246 430.66845703125 240.8512752 430.66845703125 234.5 Z" opacity="0.2"/></g><g transform="translate(-22,-78) scale(1,1)"><path fill="#ffffff" stroke="none" d="M 423.66845703125 227.5 C 423.66845703125 221.1487248 428.81718183125 216 435.16845703125 216 C 441.51973223125 216 446.66845703125 221.1487248 446.66845703125 227.5 C 446.66845703125 233.8512752 441.51973223125 239 435.16845703125 239 C 428.81718183125 239 423.66845703125 233.8512752 423.66845703125 227.5 Z"/></g><g transform="translate(-22,-78) scale(1,1)"><path fill="none" stroke="#000000" d="M 423.66845703125 227.5 C 423.66845703125 221.1487248 428.81718183125 216 435.16845703125 216 C 441.51973223125 216 446.66845703125 221.1487248 446.66845703125 227.5 C 446.66845703125 233.8512752 441.51973223125 239 435.16845703125 239 C 428.81718183125 239 423.66845703125 233.8512752 423.66845703125 227.5 Z" stroke-miterlimit="10"/></g><g transform="translate(-22,-78) scale(1,1)"><g><path fill="none" stroke="none"/><text fill="#000000" stroke="none" font-family="Arial" font-size="13px" font-style="normal" font-weight="bold" text-decoration="none" x="367.48974609375" y="258.5">IWebRTCEventHandler</text></g></g><g transform="translate(-22,-78) scale(1,1)"><rect fill="#C0C0C0" stroke="none" x="311" y="503" width="68.00146484375" height="44" opacity="0.2"/></g><g transform="translate(-22,-78) scale(1,1)"><rect fill="#ffffff" stroke="none" x="304" y="496" width="68.00146484375" height="44"/></g><g transform="translate(-22,-78) scale(1,1)"><path fill="none" stroke="#000000" d="M 304 496 L 372.00146484375 496 L 372.00146484375 540 L 304 540 L 304 496 Z Z" stroke-miterlimit="10"/></g><g transform="translate(-22,-78) scale(1,1)"><path fill="none" stroke="#000000" d="M 304 521 L 372.00146484375 521" stroke-miterlimit="10"/></g><g transform="translate(-22,-78) scale(1,1)"><path fill="none" stroke="#000000" d="M 304 531 L 372.00146484375 531" stroke-miterlimit="10"/></g><g transform="translate(-22,-78) scale(1,1)"><g><path fill="none" stroke="none"/><text fill="#000000" stroke="none" font-family="Arial" font-size="13px" font-style="normal" font-weight="bold" text-decoration="none" x="310.29638671875" y="515.5">VideoCall</text></g></g><g transform="translate(-22,-78) scale(1,1)"><path fill="none" stroke="#000000" d="M 331 351 L 265.05263157894734 239" stroke-miterlimit="10"/></g><g transform="translate(-22,-78) scale(1,1)"><path fill="none" stroke="#000000" d="M 361 351 L 429.63157894736844 239" stroke-miterlimit="10"/></g><g transform="translate(-22,-78) scale(1,1)"><path fill="none" stroke="#000000" d="M 339 495 L 345 397" stroke-miterlimit="10"/></g><g transform="translate(-22,-78) scale(1,1)"><path fill="#FFFFFF" stroke="none" d="M 352.1612172099699 417.801850111748 L 345 397 L 335.3546159754764 416.7728745259627"/></g><g transform="translate(-22,-78) scale(1,1)"><path fill="none" stroke="#000000" d="M 352.1612172099699 417.801850111748 L 345 397 L 335.3546159754764 416.7728745259627 L 352.1612172099699 417.801850111748" stroke-miterlimit="10"/></g><g transform="translate(-22,-78) scale(1,1)"><rect fill="#C0C0C0" stroke="none" x="47" y="503" width="80.98876953125" height="44" opacity="0.2"/></g><g transform="translate(-22,-78) scale(1,1)"><rect fill="#ffffff" stroke="none" x="40" y="496" width="80.98876953125" height="44"/></g><g transform="translate(-22,-78) scale(1,1)"><path fill="none" stroke="#000000" d="M 40 496 L 120.98876953125 496 L 120.98876953125 540 L 40 540 L 40 496 Z Z" stroke-miterlimit="10"/></g><g transform="translate(-22,-78) scale(1,1)"><path fill="none" stroke="#000000" d="M 40 521 L 120.98876953125 521" stroke-miterlimit="10"/></g><g transform="translate(-22,-78) scale(1,1)"><path fill="none" stroke="#000000" d="M 40 531 L 120.98876953125 531" stroke-miterlimit="10"/></g><g transform="translate(-22,-78) scale(1,1)"><g><path fill="none" stroke="none"/><text fill="#000000" stroke="none" font-family="Arial" font-size="13px" font-style="normal" font-weight="bold" text-decoration="none" x="46.648681640625" y="515.5">VideoRoom</text></g></g><g transform="translate(-22,-78) scale(1,1)"><path fill="none" stroke="#000000" d="M 122 495 L 304 397" stroke-miterlimit="10"/></g><g transform="translate(-22,-78) scale(1,1)"><path fill="#FFFFFF" stroke="none" d="M 290.0955802262923 414.0489621606867 L 304 397 L 282.11265373353257 399.2235272455614"/></g><g transform="translate(-22,-78) scale(1,1)"><path fill="none" stroke="#000000" d="M 290.0955802262923 414.0489621606867 L 304 397 L 282.11265373353257 399.2235272455614 L 290.0955802262923 414.0489621606867" stroke-miterlimit="10"/></g><g transform="translate(-22,-78) scale(1,1)"><path fill="none" stroke="#000000" d="M 390 374 L 559 374" stroke-miterlimit="10"/></g><g transform="translate(-22,-78) scale(1,1)"><path fill="#000000" stroke="none" d="M 548.8373251423759 378.209517756016 L 559 374 L 548.8373251423758 369.790482243984 L 537 374"/></g><g transform="translate(-22,-78) scale(1,1)"><path fill="none" stroke="#000000" d="M 548.8373251423759 378.209517756016 L 559 374 L 548.8373251423758 369.790482243984 L 537 374 L 548.8373251423759 378.209517756016" stroke-miterlimit="10"/></g><g transform="translate(-22,-78) scale(1,1)"><g><path fill="none" stroke="none"/><text fill="#000000" stroke="none" font-family="Arial" font-size="13px" font-style="normal" font-weight="normal" text-decoration="none" x="459.5" y="365.5">+N-1</text></g></g><g transform="translate(-22,-78) scale(1,1)"><rect fill="#C0C0C0" stroke="none" x="183" y="503" width="76.18359375" height="44" opacity="0.2"/></g><g transform="translate(-22,-78) scale(1,1)"><rect fill="#ffffff" stroke="none" x="176" y="496" width="76.18359375" height="44"/></g><g transform="translate(-22,-78) scale(1,1)"><path fill="none" stroke="#000000" d="M 176 496 L 252.18359375 496 L 252.18359375 540 L 176 540 L 176 496 Z Z" stroke-miterlimit="10"/></g><g transform="translate(-22,-78) scale(1,1)"><path fill="none" stroke="#000000" d="M 176 521 L 252.18359375 521" stroke-miterlimit="10"/></g><g transform="translate(-22,-78) scale(1,1)"><path fill="none" stroke="#000000" d="M 176 531 L 252.18359375 531" stroke-miterlimit="10"/></g><g transform="translate(-22,-78) scale(1,1)"><g><path fill="none" stroke="none"/><text fill="#000000" stroke="none" font-family="Arial" font-size="13px" font-style="normal" font-weight="bold" text-decoration="none" x="183.3818359375" y="515.5">Participant</text></g></g><g transform="translate(-22,-78) scale(1,1)"><path fill="none" stroke="#000000" d="M 235 495 L 325 397" stroke-miterlimit="10"/></g><g transform="translate(-22,-78) scale(1,1)"><path fill="#FFFFFF" stroke="none" d="M 317.45270312080936 417.66490526998274 L 325 397 L 305.05096054811384 406.27554984607866"/></g><g transform="translate(-22,-78) scale(1,1)"><path fill="none" stroke="#000000" d="M 317.45270312080936 417.66490526998274 L 325 397 L 305.05096054811384 406.27554984607866 L 317.45270312080936 417.66490526998274" stroke-miterlimit="10"/></g><g transform="translate(-22,-78) scale(1,1)"><rect fill="#C0C0C0" stroke="none" x="455" y="503" width="71.59423828125" height="44" opacity="0.2"/></g><g transform="translate(-22,-78) scale(1,1)"><rect fill="#ffffff" stroke="none" x="448" y="496" width="71.59423828125" height="44"/></g><g transform="translate(-22,-78) scale(1,1)"><path fill="none" stroke="#000000" d="M 448 496 L 519.59423828125 496 L 519.59423828125 540 L 448 540 L 448 496 Z Z" stroke-miterlimit="10"/></g><g transform="translate(-22,-78) scale(1,1)"><path fill="none" stroke="#000000" d="M 448 521 L 519.59423828125 521" stroke-miterlimit="10"/></g><g transform="translate(-22,-78) scale(1,1)"><path fill="none" stroke="#000000" d="M 448 531 L 519.59423828125 531" stroke-miterlimit="10"/></g><g transform="translate(-22,-78) scale(1,1)"><g><path fill="none" stroke="none"/><text fill="#000000" stroke="none" font-family="Arial" font-size="13px" font-style="normal" font-weight="bold" text-decoration="none" x="454.53759765625" y="515.5">TextRoom</text></g></g><g transform="translate(-22,-78) scale(1,1)"><rect fill="#C0C0C0" stroke="none" x="583" y="503" width="72.57177734375" height="44" opacity="0.2"/></g><g transform="translate(-22,-78) scale(1,1)"><rect fill="#ffffff" stroke="none" x="576" y="496" width="72.57177734375" height="44"/></g><g transform="translate(-22,-78) scale(1,1)"><path fill="none" stroke="#000000" d="M 576 496 L 648.57177734375 496 L 648.57177734375 540 L 576 540 L 576 496 Z Z" stroke-miterlimit="10"/></g><g transform="translate(-22,-78) scale(1,1)"><path fill="none" stroke="#000000" d="M 576 521 L 648.57177734375 521" stroke-miterlimit="10"/></g><g transform="translate(-22,-78) scale(1,1)"><path fill="none" stroke="#000000" d="M 576 531 L 648.57177734375 531" stroke-miterlimit="10"/></g><g transform="translate(-22,-78) scale(1,1)"><g><path fill="none" stroke="none"/><text fill="#000000" stroke="none" font-family="Arial" font-size="13px" font-style="normal" font-weight="bold" text-decoration="none" x="582.661376953125" y="515.5">Streaming</text></g></g><g transform="translate(-22,-78) scale(1,1)"><path fill="none" stroke="#000000" d="M 461 495 L 368 397" stroke-miterlimit="10"/></g><g transform="translate(-22,-78) scale(1,1)"><path fill="#FFFFFF" stroke="none" d="M 388.0980708091517 405.9480472590574 L 368 397 L 375.8842572626614 417.53870705317576"/></g><g transform="translate(-22,-78) scale(1,1)"><path fill="none" stroke="#000000" d="M 388.0980708091517 405.9480472590574 L 368 397 L 375.8842572626614 417.53870705317576 L 388.0980708091517 405.9480472590574" stroke-miterlimit="10"/></g><g transform="translate(-22,-78) scale(1,1)"><path fill="none" stroke="#000000" d="M 575 498 L 388 397" stroke-miterlimit="10"/></g><g transform="translate(-22,-78) scale(1,1)"><path fill="#FFFFFF" stroke="none" d="M 409.8844941628444 399.251425156746 L 388 397 L 401.8826762297156 414.0666722210538"/></g><g transform="translate(-22,-78) scale(1,1)"><path fill="none" stroke="#000000" d="M 409.8844941628444 399.251425156746 L 388 397 L 401.8826762297156 414.0666722210538 L 409.8844941628444 399.251425156746" stroke-miterlimit="10"/></g><g transform="translate(-22,-78) scale(1,1)"><rect fill="#C0C0C0" stroke="none" x="935" y="359" width="82.68359375" height="44" opacity="0.2"/></g><g transform="translate(-22,-78) scale(1,1)"><rect fill="#ffffff" stroke="none" x="928" y="352" width="82.68359375" height="44"/></g><g transform="translate(-22,-78) scale(1,1)"><path fill="none" stroke="#000000" d="M 928 352 L 1010.68359375 352 L 1010.68359375 396 L 928 396 L 928 352 Z Z" stroke-miterlimit="10"/></g><g transform="translate(-22,-78) scale(1,1)"><path fill="none" stroke="#000000" d="M 928 377 L 1010.68359375 377" stroke-miterlimit="10"/></g><g transform="translate(-22,-78) scale(1,1)"><path fill="none" stroke="#000000" d="M 928 387 L 1010.68359375 387" stroke-miterlimit="10"/></g><g transform="translate(-22,-78) scale(1,1)"><g><path fill="none" stroke="none"/><text fill="#000000" stroke="none" font-family="Arial" font-size="13px" font-style="normal" font-weight="bold" text-decoration="none" x="935.378662109375" y="371.5">JanusClient</text></g></g><g transform="translate(-22,-78) scale(1,1)"><path fill="#C0C0C0" stroke="none" d="M 888.86181640625 234.5 C 888.86181640625 228.1487248 894.01054120625 223 900.36181640625 223 C 906.71309160625 223 911.86181640625 228.1487248 911.86181640625 234.5 C 911.86181640625 240.8512752 906.71309160625 246 900.36181640625 246 C 894.01054120625 246 888.86181640625 240.8512752 888.86181640625 234.5 Z" opacity="0.2"/></g><g transform="translate(-22,-78) scale(1,1)"><path fill="#ffffff" stroke="none" d="M 881.86181640625 227.5 C 881.86181640625 221.1487248 887.01054120625 216 893.36181640625 216 C 899.71309160625 216 904.86181640625 221.1487248 904.86181640625 227.5 C 904.86181640625 233.8512752 899.71309160625 239 893.36181640625 239 C 887.01054120625 239 881.86181640625 233.8512752 881.86181640625 227.5 Z"/></g><g transform="translate(-22,-78) scale(1,1)"><path fill="none" stroke="#000000" d="M 881.86181640625 227.5 C 881.86181640625 221.1487248 887.01054120625 216 893.36181640625 216 C 899.71309160625 216 904.86181640625 221.1487248 904.86181640625 227.5 C 904.86181640625 233.8512752 899.71309160625 239 893.36181640625 239 C 887.01054120625 239 881.86181640625 233.8512752 881.86181640625 227.5 Z" stroke-miterlimit="10"/></g><g transform="translate(-22,-78) scale(1,1)"><g><path fill="none" stroke="none"/><text fill="#000000" stroke="none" font-family="Arial" font-size="13px" font-style="normal" font-weight="bold" text-decoration="none" x="861.937744140625" y="258.5">ISFUClient</text></g></g><g transform="translate(-22,-78) scale(1,1)"><path fill="none" stroke="#000000" d="M 956 351 L 897.421052631579 239" stroke-miterlimit="10"/></g><g transform="translate(-22,-78) scale(1,1)"><rect fill="#C0C0C0" stroke="none" x="559" y="95" width="127.498046875" height="44" opacity="0.2"/></g><g transform="translate(-22,-78) scale(1,1)"><rect fill="#ffffff" stroke="none" x="552" y="88" width="127.498046875" height="44"/></g><g transform="translate(-22,-78) scale(1,1)"><path fill="none" stroke="#000000" d="M 552 88 L 679.498046875 88 L 679.498046875 132 L 552 132 L 552 88 Z Z" stroke-miterlimit="10"/></g><g transform="translate(-22,-78) scale(1,1)"><path fill="none" stroke="#000000" d="M 552 113 L 679.498046875 113" stroke-miterlimit="10"/></g><g transform="translate(-22,-78) scale(1,1)"><path fill="none" stroke="#000000" d="M 552 123 L 679.498046875 123" stroke-miterlimit="10"/></g><g transform="translate(-22,-78) scale(1,1)"><g><path fill="none" stroke="none"/><text fill="#000000" stroke="none" font-family="Arial" font-size="13px" font-style="normal" font-weight="bold" text-decoration="none" x="561.20361328125" y="107.5">AbstractBizService</text></g></g><g transform="translate(-22,-78) scale(1,1)"><path fill="none" stroke="#000000" d="M 616 215 L 615 133" stroke-miterlimit="10"/></g><g transform="translate(-22,-78) scale(1,1)"><path fill="#FFFFFF" stroke="none" d="M 623.6662612269535 153.22117494969578 L 615 133 L 606.8294421506234 153.42650201160222"/></g><g transform="translate(-22,-78) scale(1,1)"><path fill="none" stroke="#000000" d="M 623.6662612269535 153.22117494969578 L 615 133 L 606.8294421506234 153.42650201160222 L 623.6662612269535 153.22117494969578" stroke-miterlimit="10"/></g><g transform="translate(-22,-78) scale(1,1)"><path fill="none" stroke="#000000" d="M 927 374 L 670 374" stroke-miterlimit="10"/></g><g transform="translate(-22,-78) scale(1,1)"><path fill="#000000" stroke="none" d="M 680.1626748576241 369.790482243984 L 670 374 L 680.1626748576241 378.209517756016 L 692 374"/></g><g transform="translate(-22,-78) scale(1,1)"><path fill="none" stroke="#000000" d="M 680.1626748576241 369.790482243984 L 670 374 L 680.1626748576241 378.209517756016 L 692 374 L 680.1626748576241 369.790482243984" stroke-miterlimit="10"/></g><g transform="translate(-22,-78) scale(1,1)"><g><path fill="none" stroke="none"/><text fill="#000000" stroke="none" font-family="Arial" font-size="13px" font-style="normal" font-weight="normal" text-decoration="none" x="783.5" y="395.5">+1-1</text></g></g><g transform="translate(-22,-78) scale(1,1)"><rect fill="#C0C0C0" stroke="none" x="39" y="223" width="116.11669921875" height="44" opacity="0.2"/></g><g transform="translate(-22,-78) scale(1,1)"><rect fill="#ffffff" stroke="none" x="32" y="216" width="116.11669921875" height="44"/></g><g transform="translate(-22,-78) scale(1,1)"><path fill="none" stroke="#000000" d="M 32 216 L 148.11669921875 216 L 148.11669921875 260 L 32 260 L 32 216 Z Z" stroke-miterlimit="10"/></g><g transform="translate(-22,-78) scale(1,1)"><path fill="none" stroke="#000000" d="M 32 241 L 148.11669921875 241" stroke-miterlimit="10"/></g><g transform="translate(-22,-78) scale(1,1)"><path fill="none" stroke="#000000" d="M 32 251 L 148.11669921875 251" stroke-miterlimit="10"/></g><g transform="translate(-22,-78) scale(1,1)"><g><path fill="none" stroke="none"/><text fill="#000000" stroke="none" font-family="Arial" font-size="13px" font-style="normal" font-weight="bold" text-decoration="none" x="41.168701171875" y="235.5">WebRTCContext</text></g></g><g transform="translate(-22,-78) scale(1,1)"><rect fill="#C0C0C0" stroke="none" x="47" y="359" width="103.01513671875" height="44" opacity="0.2"/></g><g transform="translate(-22,-78) scale(1,1)"><rect fill="#ffffff" stroke="none" x="40" y="352" width="103.01513671875" height="44"/></g><g transform="translate(-22,-78) scale(1,1)"><path fill="none" stroke="#000000" d="M 40 352 L 143.01513671875 352 L 143.01513671875 396 L 40 396 L 40 352 Z Z" stroke-miterlimit="10"/></g><g transform="translate(-22,-78) scale(1,1)"><path fill="none" stroke="#000000" d="M 40 377 L 143.01513671875 377" stroke-miterlimit="10"/></g><g transform="translate(-22,-78) scale(1,1)"><path fill="none" stroke="#000000" d="M 40 387 L 143.01513671875 387" stroke-miterlimit="10"/></g><g transform="translate(-22,-78) scale(1,1)"><g><path fill="none" stroke="none"/><text fill="#000000" stroke="none" font-family="Arial" font-size="13px" font-style="normal" font-weight="bold" text-decoration="none" x="51.0380859375" y="371.5">PluginContext</text></g></g><g transform="translate(-22,-78) scale(1,1)"><path fill="none" stroke="#000000" d="M 90 261 L 91 351" stroke-miterlimit="10"/></g><g transform="translate(-22,-78) scale(1,1)"><path fill="#000000" stroke="none" d="M 86.67783042681171 340.8847219424968 L 91 351 L 95.09634629340837 340.7911828773124 L 90.75557064332179 329.00135789896126"/></g><g transform="translate(-22,-78) scale(1,1)"><path fill="none" stroke="#000000" d="M 86.67783042681171 340.8847219424968 L 91 351 L 95.09634629340837 340.7911828773124 L 90.75557064332179 329.00135789896126 L 86.67783042681171 340.8847219424968" stroke-miterlimit="10"/></g><g transform="translate(-22,-78) scale(1,1)"><path fill="none" stroke="#000000" d="M 144 374 L 303 374" stroke-miterlimit="10"/></g><g transform="translate(-22,-78) scale(1,1)"><path fill="#000000" stroke="none" d="M 292.83732514237585 378.209517756016 L 303 374 L 292.83732514237585 369.790482243984 L 281 374"/></g><g transform="translate(-22,-78) scale(1,1)"><path fill="none" stroke="#000000" d="M 292.83732514237585 378.209517756016 L 303 374 L 292.83732514237585 369.790482243984 L 281 374 L 292.83732514237585 378.209517756016" stroke-miterlimit="10"/></g><g transform="translate(-22,-78) scale(1,1)"><rect fill="#C0C0C0" stroke="none" x="1175" y="359" width="136.87353515625" height="44" opacity="0.2"/></g><g transform="translate(-22,-78) scale(1,1)"><rect fill="#ffffff" stroke="none" x="1168" y="352" width="136.87353515625" height="44"/></g><g transform="translate(-22,-78) scale(1,1)"><path fill="none" stroke="#000000" d="M 1168 352 L 1304.87353515625 352 L 1304.87353515625 396 L 1168 396 L 1168 352 Z Z" stroke-miterlimit="10"/></g><g transform="translate(-22,-78) scale(1,1)"><path fill="none" stroke="#000000" d="M 1168 377 L 1304.87353515625 377" stroke-miterlimit="10"/></g><g transform="translate(-22,-78) scale(1,1)"><path fill="none" stroke="#000000" d="M 1168 387 L 1304.87353515625 387" stroke-miterlimit="10"/></g><g transform="translate(-22,-78) scale(1,1)"><g><path fill="none" stroke="none"/><text fill="#000000" stroke="none" font-family="Arial" font-size="13px" font-style="normal" font-weight="bold" text-decoration="none" x="1176.70849609375" y="371.5">MessageTransportor</text></g></g><g transform="translate(-22,-78) scale(1,1)"><path fill="#C0C0C0" stroke="none" d="M 1230.127685546875 234.5 C 1230.127685546875 228.1487248 1235.276410346875 223 1241.627685546875 223 C 1247.978960746875 223 1253.127685546875 228.1487248 1253.127685546875 234.5 C 1253.127685546875 240.8512752 1247.978960746875 246 1241.627685546875 246 C 1235.276410346875 246 1230.127685546875 240.8512752 1230.127685546875 234.5 Z" opacity="0.2"/></g><g transform="translate(-22,-78) scale(1,1)"><path fill="#ffffff" stroke="none" d="M 1223.127685546875 227.5 C 1223.127685546875 221.1487248 1228.276410346875 216 1234.627685546875 216 C 1240.978960746875 216 1246.127685546875 221.1487248 1246.127685546875 227.5 C 1246.127685546875 233.8512752 1240.978960746875 239 1234.627685546875 239 C 1228.276410346875 239 1223.127685546875 233.8512752 1223.127685546875 227.5 Z"/></g><g transform="translate(-22,-78) scale(1,1)"><path fill="none" stroke="#000000" d="M 1223.127685546875 227.5 C 1223.127685546875 221.1487248 1228.276410346875 216 1234.627685546875 216 C 1240.978960746875 216 1246.127685546875 221.1487248 1246.127685546875 227.5 C 1246.127685546875 233.8512752 1240.978960746875 239 1234.627685546875 239 C 1228.276410346875 239 1223.127685546875 233.8512752 1223.127685546875 227.5 Z" stroke-miterlimit="10"/></g><g transform="translate(-22,-78) scale(1,1)"><g><path fill="none" stroke="none"/><text fill="#000000" stroke="none" font-family="Arial" font-size="13px" font-style="normal" font-weight="bold" text-decoration="none" x="1176.70849609375" y="258.5">IMessgeTransportor</text></g></g><g transform="translate(-22,-78) scale(1,1)"><path fill="none" stroke="#000000" d="M 1236 351 L 1234 239" stroke-miterlimit="10"/></g><g transform="translate(-22,-78) scale(1,1)"><path fill="#C0C0C0" stroke="none" d="M 1044.528564453125 234.5 C 1044.528564453125 228.1487248 1049.677289253125 223 1056.028564453125 223 C 1062.379839653125 223 1067.528564453125 228.1487248 1067.528564453125 234.5 C 1067.528564453125 240.8512752 1062.379839653125 246 1056.028564453125 246 C 1049.677289253125 246 1044.528564453125 240.8512752 1044.528564453125 234.5 Z" opacity="0.2"/></g><g transform="translate(-22,-78) scale(1,1)"><path fill="#ffffff" stroke="none" d="M 1037.528564453125 227.5 C 1037.528564453125 221.1487248 1042.677289253125 216 1049.028564453125 216 C 1055.379839653125 216 1060.528564453125 221.1487248 1060.528564453125 227.5 C 1060.528564453125 233.8512752 1055.379839653125 239 1049.028564453125 239 C 1042.677289253125 239 1037.528564453125 233.8512752 1037.528564453125 227.5 Z"/></g><g transform="translate(-22,-78) scale(1,1)"><path fill="none" stroke="#000000" d="M 1037.528564453125 227.5 C 1037.528564453125 221.1487248 1042.677289253125 216 1049.028564453125 216 C 1055.379839653125 216 1060.528564453125 221.1487248 1060.528564453125 227.5 C 1060.528564453125 233.8512752 1055.379839653125 239 1049.028564453125 239 C 1042.677289253125 239 1037.528564453125 233.8512752 1037.528564453125 227.5 Z" stroke-miterlimit="10"/></g><g transform="translate(-22,-78) scale(1,1)"><g><path fill="none" stroke="none"/><text fill="#000000" stroke="none" font-family="Arial" font-size="13px" font-style="normal" font-weight="bold" text-decoration="none" x="970.1494140625" y="258.5">IMessageTransportListener</text></g></g><g transform="translate(-22,-78) scale(1,1)"><path fill="none" stroke="#000000" d="M 983 351 L 1044.2631578947369 239" stroke-miterlimit="10"/></g><g transform="translate(-22,-78) scale(1,1)"><path fill="#C0C0C0" stroke="none" d="M 754.147705078125 234.5 C 754.147705078125 228.1487248 759.296429878125 223 765.647705078125 223 C 771.998980278125 223 777.147705078125 228.1487248 777.147705078125 234.5 C 777.147705078125 240.8512752 771.998980278125 246 765.647705078125 246 C 759.296429878125 246 754.147705078125 240.8512752 754.147705078125 234.5 Z" opacity="0.2"/></g><g transform="translate(-22,-78) scale(1,1)"><path fill="#ffffff" stroke="none" d="M 747.147705078125 227.5 C 747.147705078125 221.1487248 752.296429878125 216 758.647705078125 216 C 764.998980278125 216 770.147705078125 221.1487248 770.147705078125 227.5 C 770.147705078125 233.8512752 764.998980278125 239 758.647705078125 239 C 752.296429878125 239 747.147705078125 233.8512752 747.147705078125 227.5 Z"/></g><g transform="translate(-22,-78) scale(1,1)"><path fill="none" stroke="#000000" d="M 747.147705078125 227.5 C 747.147705078125 221.1487248 752.296429878125 216 758.647705078125 216 C 764.998980278125 216 770.147705078125 221.1487248 770.147705078125 227.5 C 770.147705078125 233.8512752 764.998980278125 239 758.647705078125 239 C 752.296429878125 239 747.147705078125 233.8512752 747.147705078125 227.5 Z" stroke-miterlimit="10"/></g><g transform="translate(-22,-78) scale(1,1)"><g><path fill="none" stroke="none"/><text fill="#000000" stroke="none" font-family="Arial" font-size="13px" font-style="normal" font-weight="bold" text-decoration="none" x="704.09912109375" y="258.5">ISFUClientListener</text></g></g><g transform="translate(-22,-78) scale(1,1)"><path fill="none" stroke="#000000" d="M 639 351 L 749.4736842105264 239" stroke-miterlimit="10"/></g><g transform="translate(-22,-78) scale(1,1)"><path fill="none" stroke="#000000" d="M 1167 374 L 1012 374" stroke-miterlimit="10"/></g><g transform="translate(-22,-78) scale(1,1)"><path fill="#000000" stroke="none" d="M 1022.1626748576241 369.790482243984 L 1012 374 L 1022.1626748576241 378.209517756016 L 1034 374"/></g><g transform="translate(-22,-78) scale(1,1)"><path fill="none" stroke="#000000" d="M 1022.1626748576241 369.790482243984 L 1012 374 L 1022.1626748576241 378.209517756016 L 1034 374 L 1022.1626748576241 369.790482243984" stroke-miterlimit="10"/></g></g></svg>